<svg data-v-423bf9ae="" xmlns="http://www.w3.org/2000/svg" viewBox="0 0 540 90" class="iconLeft"><!----><!----><!----><g data-v-423bf9ae="" id="a9156800-611f-43d6-8486-d6c668ccac9b" fill="#000000" transform="matrix(4.043126643063871,0,0,4.043126643063871,132.42814465360965,3.436658691533154)"><path d="M3.81 5.61L3.81 5.61Q3.81 4.97 3.63 4.72L3.63 4.72L3.63 4.72Q3.44 4.47 2.91 4.31L2.91 4.31L2.59 4.23L2.76 3.75L5.82 3.75L6.01 3.98L5.82 4.23L5.82 4.23Q5.47 4.69 5.33 5.21L5.33 5.21L5.33 5.21Q5.19 5.73 5.19 6.57L5.19 6.57L5.19 10.50L5.19 10.50Q5.19 12.32 4.42 13.16L4.42 13.16L4.42 13.16Q3.64 14 2.27 14L2.27 14L2.27 14Q1.44 14 0.87 13.71L0.87 13.71L0.87 13.71Q0.29 13.43 0.01 12.97L0.01 12.97L0.01 12.97Q-0.28 12.52-0.28 12.00L-0.28 12.00L-0.28 12.00Q-0.28 11.30 0.20 10.80L0.20 10.80L0.20 10.80Q0.67 10.30 1.50 10.30L1.50 10.30L1.50 10.30Q1.64 10.30 1.70 10.35L1.70 10.35L1.70 10.35Q1.76 10.40 1.76 10.46L1.76 10.46L1.76 10.46Q1.76 10.51 1.57 10.72L1.57 10.72L1.57 10.72Q1.37 10.93 1.23 11.23L1.23 11.23L1.23 11.23Q1.08 11.52 1.08 11.97L1.08 11.97L1.08 11.97Q1.08 12.53 1.42 12.90L1.42 12.90L1.42 12.90Q1.76 13.27 2.37 13.27L2.37 13.27L2.37 13.27Q3.81 13.27 3.81 11.35L3.81 11.35L3.81 5.61ZM12.18 12.52L12.18 12.52Q11.61 13.33 11.00 13.66L11.00 13.66L11.00 13.66Q10.40 14 9.70 14L9.70 14L9.70 14Q9.03 14 8.46 13.62L8.46 13.62L8.46 13.62Q7.88 13.23 7.54 12.46L7.54 12.46L7.54 12.46Q7.20 11.69 7.20 10.60L7.20 10.60L7.20 10.60Q7.20 9.39 7.64 8.50L7.64 8.50L7.64 8.50Q8.08 7.62 8.90 7.14L8.90 7.14L8.90 7.14Q9.72 6.66 10.82 6.66L10.82 6.66L10.82 6.66Q11.37 6.66 12.36 6.85L12.36 6.85L12.36 6.85Q13.20 6.99 13.62 7.01L13.62 7.01L13.78 7.20L13.61 7.45L13.61 7.45Q13.51 7.59 13.47 7.71L13.47 7.71L13.47 7.71Q13.43 7.83 13.43 7.99L13.43 7.99L13.43 12.57L13.43 12.57Q13.43 13.01 13.85 13.01L13.85 13.01L13.85 13.01Q14.20 13.01 14.55 12.75L14.55 12.75L14.81 13.12L14.81 13.12Q14.45 13.52 14.03 13.76L14.03 13.76L14.03 13.76Q13.61 14 13.26 14L13.26 14L13.26 14Q12.68 14 12.43 13.65L12.43 13.65L12.43 13.65Q12.18 13.30 12.18 12.52L12.18 12.52ZM8.67 10.33L8.67 10.33Q8.67 11.66 9.12 12.29L9.12 12.29L9.12 12.29Q9.58 12.92 10.26 12.92L10.26 12.92L10.26 12.92Q10.82 12.92 11.31 12.61L11.31 12.61L11.31 12.61Q11.80 12.29 12.18 11.65L12.18 11.65L12.18 7.87L12.18 7.87Q11.54 7.43 10.81 7.43L10.81 7.43L10.81 7.43Q9.79 7.43 9.23 8.20L9.23 8.20L9.23 8.20Q8.67 8.96 8.67 10.33L8.67 10.33ZM21.11 12.36L21.11 12.36Q21.15 12.32 21.24 12.32L21.24 12.32L21.24 12.32Q21.35 12.32 21.47 12.45L21.47 12.45L21.47 12.45Q21.59 12.57 21.59 12.71L21.59 12.71L21.59 12.71Q21.59 12.80 21.55 12.84L21.55 12.84L21.55 12.84Q21.06 13.40 20.40 13.70L20.40 13.70L20.40 13.70Q19.75 14 19.03 14L19.03 14L19.03 14Q18.06 14 17.29 13.53L17.29 13.53L17.29 13.53Q16.52 13.06 16.09 12.23L16.09 12.23L16.09 12.23Q15.65 11.40 15.65 10.35L15.65 10.35L15.65 10.35Q15.65 9.24 16.07 8.41L16.07 8.41L16.07 8.41Q16.49 7.57 17.25 7.12L17.25 7.12L17.25 7.12Q18.02 6.66 19.04 6.66L19.04 6.66L19.04 6.66Q20.12 6.66 20.81 7.19L20.81 7.19L20.81 7.19Q21.50 7.71 21.50 8.54L21.50 8.54L21.50 8.54Q21.50 9.14 21.12 9.53L21.12 9.53L21.12 9.53Q20.73 9.91 20.13 9.91L20.13 9.91L20.13 9.91Q19.87 9.91 19.87 9.76L19.87 9.76L19.87 9.76Q19.87 9.72 19.96 9.56L19.96 9.56L19.96 9.56Q20.06 9.41 20.13 9.18L20.13 9.18L20.13 9.18Q20.20 8.96 20.20 8.61L20.20 8.61L20.20 8.61Q20.20 8.05 19.84 7.72L19.84 7.72L19.84 7.72Q19.49 7.39 18.89 7.39L18.89 7.39L18.89 7.39Q18.09 7.39 17.60 8.18L17.60 8.18L17.60 8.18Q17.11 8.96 17.11 10.23L17.11 10.23L17.11 10.23Q17.11 11.54 17.69 12.30L17.69 12.30L17.69 12.30Q18.27 13.06 19.26 13.06L19.26 13.06L19.26 13.06Q20.27 13.06 21.11 12.36L21.11 12.36ZM28.77 12.75L28.77 12.75Q28.25 13.36 27.54 13.68L27.54 13.68L27.54 13.68Q26.82 14 26.00 14L26.00 14L26.00 14Q25.03 14 24.30 13.55L24.30 13.55L24.30 13.55Q23.58 13.10 23.18 12.29L23.18 12.29L23.18 12.29Q22.78 11.48 22.78 10.42L22.78 10.42L22.78 10.42Q22.78 9.30 23.23 8.45L23.23 8.45L23.23 8.45Q23.67 7.60 24.49 7.13L24.49 7.13L24.49 7.13Q25.31 6.66 26.40 6.66L26.40 6.66L26.40 6.66Q27.17 6.66 27.71 6.95L27.71 6.95L27.71 6.95Q28.25 7.24 28.52 7.71L28.52 7.71L28.52 7.71Q28.78 8.18 28.78 8.72L28.78 8.72L28.78 8.72Q28.78 9.31 28.47 9.86L28.47 9.86L28.47 9.86Q28.15 10.40 27.55 10.75L27.55 10.75L27.55 10.75Q26.95 11.09 26.11 11.09L26.11 11.09L26.11 11.09Q25.66 11.09 25.12 10.92L25.12 10.92L25.12 10.92Q24.57 10.75 24.57 10.43L24.57 10.43L24.57 10.43Q24.57 10.32 24.63 10.22L24.63 10.22L24.63 10.22Q24.70 10.12 24.78 10.12L24.78 10.12L24.78 10.12Q24.82 10.12 25.06 10.21L25.06 10.21L25.06 10.21Q25.30 10.30 25.68 10.30L25.68 10.30L25.68 10.30Q26.52 10.30 26.98 9.83L26.98 9.83L26.98 9.83Q27.45 9.35 27.45 8.71L27.45 8.71L27.45 8.71Q27.45 8.16 27.10 7.76L27.10 7.76L27.10 7.76Q26.75 7.36 26.12 7.36L26.12 7.36L26.12 7.36Q25.23 7.36 24.72 8.16L24.72 8.16L24.72 8.16Q24.22 8.95 24.22 10.42L24.22 10.42L24.22 10.42Q24.22 11.66 24.75 12.37L24.75 12.37L24.75 12.37Q25.28 13.08 26.29 13.08L26.29 13.08L26.29 13.08Q27.52 13.08 28.34 12.28L28.34 12.28L28.34 12.28Q28.39 12.22 28.46 12.22L28.46 12.22L28.46 12.22Q28.57 12.22 28.70 12.36L28.70 12.36L28.70 12.36Q28.83 12.49 28.83 12.63L28.83 12.63L28.83 12.63Q28.83 12.70 28.77 12.75L28.77 12.75ZM32.41 8.75L32.49 8.75L32.49 8.75Q32.73 7.81 33.23 7.24L33.23 7.24L33.23 7.24Q33.73 6.66 34.31 6.66L34.31 6.66L34.31 6.66Q34.90 6.66 35.29 7.05L35.29 7.05L35.29 7.05Q35.67 7.43 35.67 8.09L35.67 8.09L35.67 8.09Q35.67 8.62 35.28 8.99L35.28 8.99L35.28 8.99Q34.89 9.35 34.30 9.35L34.30 9.35L34.30 9.35Q34.03 9.35 34.03 9.20L34.03 9.20L34.03 9.20Q34.03 9.16 34.15 8.99L34.15 8.99L34.15 8.99Q34.27 8.82 34.35 8.64L34.35 8.64L34.35 8.64Q34.43 8.46 34.43 8.23L34.43 8.23L34.43 8.23Q34.43 7.98 34.29 7.83L34.29 7.83L34.29 7.83Q34.16 7.69 33.96 7.69L33.96 7.69L33.96 7.69Q33.63 7.69 33.27 8.09L33.27 8.09L33.27 8.09Q32.91 8.48 32.66 9.37L32.66 9.37L32.66 9.37Q32.41 10.26 32.41 11.62L32.41 11.62L32.41 11.62Q32.41 12.25 32.51 12.63L32.51 12.63L32.51 12.63Q32.61 13.02 32.86 13.37L32.86 13.37L33.03 13.59L32.86 13.80L30.41 13.80L30.25 13.37L30.55 13.30L30.55 13.30Q30.90 13.22 31.02 13.00L31.02 13.00L31.02 13.00Q31.14 12.78 31.14 12.25L31.14 12.25L31.14 8.32L31.14 8.32Q31.14 8.15 31.07 8.08L31.07 8.08L31.07 8.08Q31.01 8.01 30.86 8.01L30.86 8.01L30.24 8.01L30.11 7.64L30.11 7.64Q30.52 7.28 31.05 7.04L31.05 7.04L31.05 7.04Q31.57 6.80 31.96 6.80L31.96 6.80L31.96 6.80Q32.16 6.80 32.28 6.93L32.28 6.93L32.28 6.93Q32.41 7.06 32.41 7.25L32.41 7.25L32.41 8.75ZM45.92 13.80L45.75 13.33L46.07 13.24L46.07 13.24Q46.41 13.16 46.56 13.02L46.56 13.02L46.56 13.02Q46.70 12.88 46.70 12.63L46.70 12.63L46.70 12.63Q46.70 12.40 46.55 11.94L46.55 11.94L45.88 9.98L42.64 9.98L42.31 11.00L42.31 11.00Q41.99 11.97 41.99 12.47L41.99 12.47L41.99 12.47Q41.99 12.95 42.18 13.33L42.18 13.33L42.31 13.58L42.04 13.80L39.47 13.80L39.30 13.33L39.62 13.24L39.62 13.24Q40.18 13.09 40.43 12.84L40.43 12.84L40.43 12.84Q40.68 12.59 40.91 11.94L40.91 11.94L43.11 5.61L43.11 5.61Q43.26 5.15 43.26 4.93L43.26 4.93L43.26 4.93Q43.26 4.68 43.11 4.54L43.11 4.54L43.11 4.54Q42.97 4.40 42.63 4.31L42.63 4.31L42.31 4.23L42.48 3.75L45.18 3.75L47.99 11.87L47.99 11.87Q48.22 12.52 48.48 12.85L48.48 12.85L48.48 12.85Q48.75 13.19 49.25 13.58L49.25 13.58L49.07 13.80L45.92 13.80ZM44.24 5.19L42.94 9.11L45.58 9.11L44.24 5.19ZM55.08 12.36L55.08 12.36Q55.12 12.32 55.20 12.32L55.20 12.32L55.20 12.32Q55.31 12.32 55.43 12.45L55.43 12.45L55.43 12.45Q55.55 12.57 55.55 12.71L55.55 12.71L55.55 12.71Q55.55 12.80 55.51 12.84L55.51 12.84L55.51 12.84Q55.02 13.40 54.37 13.70L54.37 13.70L54.37 13.70Q53.72 14 52.99 14L52.99 14L52.99 14Q52.02 14 51.25 13.53L51.25 13.53L51.25 13.53Q50.48 13.06 50.05 12.23L50.05 12.23L50.05 12.23Q49.62 11.40 49.62 10.35L49.62 10.35L49.62 10.35Q49.62 9.24 50.04 8.41L50.04 8.41L50.04 8.41Q50.46 7.57 51.22 7.12L51.22 7.12L51.22 7.12Q51.98 6.66 53.00 6.66L53.00 6.66L53.00 6.66Q54.08 6.66 54.78 7.19L54.78 7.19L54.78 7.19Q55.47 7.71 55.47 8.54L55.47 8.54L55.47 8.54Q55.47 9.14 55.08 9.53L55.08 9.53L55.08 9.53Q54.70 9.91 54.10 9.91L54.10 9.91L54.10 9.91Q53.83 9.91 53.83 9.76L53.83 9.76L53.83 9.76Q53.83 9.72 53.93 9.56L53.93 9.56L53.93 9.56Q54.03 9.41 54.10 9.18L54.10 9.18L54.10 9.18Q54.17 8.96 54.17 8.61L54.17 8.61L54.17 8.61Q54.17 8.05 53.81 7.72L53.81 7.72L53.81 7.72Q53.45 7.39 52.85 7.39L52.85 7.39L52.85 7.39Q52.05 7.39 51.56 8.18L51.56 8.18L51.56 8.18Q51.07 8.96 51.07 10.23L51.07 10.23L51.07 10.23Q51.07 11.54 51.65 12.30L51.65 12.30L51.65 12.30Q52.23 13.06 53.23 13.06L53.23 13.06L53.23 13.06Q54.24 13.06 55.08 12.36L55.08 12.36ZM61.73 12.52L61.73 12.52Q61.15 13.33 60.55 13.66L60.55 13.66L60.55 13.66Q59.95 14 59.25 14L59.25 14L59.25 14Q58.58 14 58.00 13.62L58.00 13.62L58.00 13.62Q57.43 13.23 57.09 12.46L57.09 12.46L57.09 12.46Q56.74 11.69 56.74 10.60L56.74 10.60L56.74 10.60Q56.74 9.39 57.18 8.50L57.18 8.50L57.18 8.50Q57.62 7.62 58.44 7.14L58.44 7.14L58.44 7.14Q59.26 6.66 60.37 6.66L60.37 6.66L60.37 6.66Q60.91 6.66 61.91 6.85L61.91 6.85L61.91 6.85Q62.75 6.99 63.17 7.01L63.17 7.01L63.32 7.20L63.15 7.45L63.15 7.45Q63.06 7.59 63.01 7.71L63.01 7.71L63.01 7.71Q62.97 7.83 62.97 7.99L62.97 7.99L62.97 12.57L62.97 12.57Q62.97 13.01 63.39 13.01L63.39 13.01L63.39 13.01Q63.74 13.01 64.09 12.75L64.09 12.75L64.36 13.12L64.36 13.12Q63.99 13.52 63.57 13.76L63.57 13.76L63.57 13.76Q63.15 14 62.80 14L62.80 14L62.80 14Q62.23 14 61.98 13.65L61.98 13.65L61.98 13.65Q61.73 13.30 61.73 12.52L61.73 12.52ZM58.21 10.33L58.21 10.33Q58.21 11.66 58.67 12.29L58.67 12.29L58.67 12.29Q59.12 12.92 59.81 12.92L59.81 12.92L59.81 12.92Q60.37 12.92 60.86 12.61L60.86 12.61L60.86 12.61Q61.35 12.29 61.73 11.65L61.73 11.65L61.73 7.87L61.73 7.87Q61.08 7.43 60.35 7.43L60.35 7.43L60.35 7.43Q59.33 7.43 58.77 8.20L58.77 8.20L58.77 8.20Q58.21 8.96 58.21 10.33L58.21 10.33ZM71.43 12.57L71.43 12.57Q71.43 13.01 71.85 13.01L71.85 13.01L71.85 13.01Q72.20 13.01 72.55 12.75L72.55 12.75L72.81 13.12L72.81 13.12Q72.45 13.52 72.03 13.76L72.03 13.76L72.03 13.76Q71.61 14 71.26 14L71.26 14L71.26 14Q70.69 14 70.43 13.65L70.43 13.65L70.43 13.65Q70.18 13.30 70.18 12.52L70.18 12.52L70.18 12.52Q69.61 13.33 69.01 13.66L69.01 13.66L69.01 13.66Q68.40 14 67.70 14L67.70 14L67.70 14Q67.03 14 66.46 13.62L66.46 13.62L66.46 13.62Q65.88 13.23 65.54 12.46L65.54 12.46L65.54 12.46Q65.20 11.69 65.20 10.60L65.20 10.60L65.20 10.60Q65.20 9.39 65.64 8.50L65.64 8.50L65.64 8.50Q66.08 7.62 66.90 7.14L66.90 7.14L66.90 7.14Q67.72 6.66 68.82 6.66L68.82 6.66L68.82 6.66Q69.55 6.66 70.15 6.85L70.15 6.85L70.15 4.37L70.15 4.37Q70.15 4.20 70.09 4.13L70.09 4.13L70.09 4.13Q70.03 4.06 69.87 4.06L69.87 4.06L69.26 4.06L69.13 3.70L69.13 3.70Q69.54 3.33 70.06 3.09L70.06 3.09L70.06 3.09Q70.59 2.86 70.98 2.86L70.98 2.86L70.98 2.86Q71.18 2.86 71.30 2.98L71.30 2.98L71.30 2.98Q71.43 3.11 71.43 3.30L71.43 3.30L71.43 12.57ZM66.67 10.33L66.67 10.33Q66.67 11.66 67.12 12.29L67.12 12.29L67.12 12.29Q67.58 12.92 68.26 12.92L68.26 12.92L68.26 12.92Q68.82 12.92 69.31 12.61L69.31 12.61L69.31 12.61Q69.80 12.29 70.18 11.65L70.18 11.65L70.18 7.87L70.18 7.87Q69.54 7.43 68.81 7.43L68.81 7.43L68.81 7.43Q67.79 7.43 67.23 8.20L67.23 8.20L67.23 8.20Q66.67 8.96 66.67 10.33L66.67 10.33ZM79.65 12.75L79.65 12.75Q79.13 13.36 78.41 13.68L78.41 13.68L78.41 13.68Q77.70 14 76.87 14L76.87 14L76.87 14Q75.91 14 75.18 13.55L75.18 13.55L75.18 13.55Q74.45 13.10 74.05 12.29L74.05 12.29L74.05 12.29Q73.65 11.48 73.65 10.42L73.65 10.42L73.65 10.42Q73.65 9.30 74.10 8.45L74.10 8.45L74.10 8.45Q74.55 7.60 75.37 7.13L75.37 7.13L75.37 7.13Q76.19 6.66 77.28 6.66L77.28 6.66L77.28 6.66Q78.05 6.66 78.59 6.95L78.59 6.95L78.59 6.95Q79.13 7.24 79.39 7.71L79.39 7.71L79.39 7.71Q79.66 8.18 79.66 8.72L79.66 8.72L79.66 8.72Q79.66 9.31 79.34 9.86L79.34 9.86L79.34 9.86Q79.03 10.40 78.43 10.75L78.43 10.75L78.43 10.75Q77.83 11.09 76.99 11.09L76.99 11.09L76.99 11.09Q76.54 11.09 75.99 10.92L75.99 10.92L75.99 10.92Q75.45 10.75 75.45 10.43L75.45 10.43L75.45 10.43Q75.45 10.32 75.51 10.22L75.51 10.22L75.51 10.22Q75.57 10.12 75.66 10.12L75.66 10.12L75.66 10.12Q75.70 10.12 75.94 10.21L75.94 10.21L75.94 10.21Q76.17 10.30 76.55 10.30L76.55 10.30L76.55 10.30Q77.39 10.30 77.86 9.83L77.86 9.83L77.86 9.83Q78.33 9.35 78.33 8.71L78.33 8.71L78.33 8.71Q78.33 8.16 77.98 7.76L77.98 7.76L77.98 7.76Q77.63 7.36 77 7.36L77 7.36L77 7.36Q76.10 7.36 75.60 8.16L75.60 8.16L75.60 8.16Q75.10 8.95 75.10 10.42L75.10 10.42L75.10 10.42Q75.10 11.66 75.63 12.37L75.63 12.37L75.63 12.37Q76.16 13.08 77.17 13.08L77.17 13.08L77.17 13.08Q78.40 13.08 79.21 12.28L79.21 12.28L79.21 12.28Q79.27 12.22 79.34 12.22L79.34 12.22L79.34 12.22Q79.45 12.22 79.58 12.36L79.58 12.36L79.58 12.36Q79.70 12.49 79.70 12.63L79.70 12.63L79.70 12.63Q79.70 12.70 79.65 12.75L79.65 12.75ZM83.29 11.56L83.29 11.56Q83.29 12.22 83.38 12.61L83.38 12.61L83.38 12.61Q83.48 13.01 83.73 13.37L83.73 13.37L83.90 13.59L83.73 13.80L81.28 13.80L81.13 13.37L81.42 13.30L81.42 13.30Q81.77 13.22 81.89 13.00L81.89 13.00L81.89 13.00Q82.01 12.78 82.01 12.25L82.01 12.25L82.01 8.32L82.01 8.32Q82.01 8.15 81.95 8.08L81.95 8.08L81.95 8.08Q81.89 8.01 81.73 8.01L81.73 8.01L81.12 8.01L80.99 7.64L80.99 7.64Q81.40 7.28 81.92 7.04L81.92 7.04L81.92 7.04Q82.45 6.80 82.84 6.80L82.84 6.80L82.84 6.80Q83.03 6.80 83.16 6.93L83.16 6.93L83.16 6.93Q83.29 7.06 83.29 7.25L83.29 7.25L83.29 8.75L83.29 8.75Q83.65 7.83 84.35 7.25L84.35 7.25L84.35 7.25Q85.05 6.66 85.82 6.66L85.82 6.66L85.82 6.66Q86.67 6.66 87.11 7.17L87.11 7.17L87.11 7.17Q87.54 7.67 87.61 8.75L87.61 8.75L87.61 8.75Q87.98 7.83 88.68 7.25L88.68 7.25L88.68 7.25Q89.38 6.66 90.15 6.66L90.15 6.66L90.15 6.66Q91.08 6.66 91.51 7.27L91.51 7.27L91.51 7.27Q91.94 7.87 91.94 9.18L91.94 9.18L91.94 12.57L91.94 12.57Q91.94 13.05 92.36 13.05L92.36 13.05L92.36 13.05Q92.68 13.05 93.06 12.75L93.06 12.75L93.32 13.12L93.32 13.12Q92.96 13.52 92.54 13.76L92.54 13.76L92.54 13.76Q92.12 14 91.76 14L91.76 14L91.76 14Q91.18 14 90.93 13.65L90.93 13.65L90.93 13.65Q90.68 13.30 90.68 12.52L90.68 12.52L90.68 9.18L90.68 9.18Q90.68 7.76 89.64 7.76L89.64 7.76L89.64 7.76Q89.05 7.76 88.61 8.21L88.61 8.21L88.61 8.21Q88.16 8.67 87.89 9.49L87.89 9.49L87.89 9.49Q87.63 10.32 87.61 11.40L87.61 11.40L87.61 11.56L87.61 11.56Q87.61 12.29 87.73 12.72L87.73 12.72L87.73 12.72Q87.85 13.15 88.23 13.59L88.23 13.59L88.06 13.80L86.35 13.80L86.35 9.18L86.35 9.18Q86.35 7.76 85.32 7.76L85.32 7.76L85.32 7.76Q84.71 7.76 84.26 8.23L84.26 8.23L84.26 8.23Q83.80 8.71 83.55 9.58L83.55 9.58L83.55 9.58Q83.29 10.44 83.29 11.56L83.29 11.56ZM97.68 17.70L97.68 17.70Q96.91 17.70 96.36 17.41L96.36 17.41L96.36 17.41Q95.82 17.12 95.55 16.67L95.55 16.67L95.55 16.67Q95.28 16.21 95.28 15.69L95.28 15.69L95.28 15.69Q95.28 14.99 95.76 14.50L95.76 14.50L95.76 14.50Q96.24 14 97.06 14L97.06 14L97.06 14Q97.20 14 97.27 14.05L97.27 14.05L97.27 14.05Q97.33 14.10 97.33 14.15L97.33 14.15L97.33 14.15Q97.33 14.21 97.13 14.42L97.13 14.42L97.13 14.42Q96.94 14.63 96.79 14.92L96.79 14.92L96.79 14.92Q96.64 15.22 96.64 15.67L96.64 15.67L96.64 15.67Q96.64 16.23 96.97 16.60L96.97 16.60L96.97 16.60Q97.30 16.97 97.86 16.97L97.86 16.97L97.86 16.97Q98.73 16.97 99.13 16.25L99.13 16.25L99.13 16.25Q99.54 15.54 99.54 14.34L99.54 14.34L99.54 12.26L99.54 12.26Q99.22 12.88 98.57 13.24L98.57 13.24L98.57 13.24Q97.93 13.59 97.16 13.59L97.16 13.59L97.16 13.59Q96.17 13.59 95.61 12.98L95.61 12.98L95.61 12.98Q95.05 12.38 95.05 11.27L95.05 11.27L95.05 8.16L95.05 8.16Q95.05 7.99 94.98 7.92L94.98 7.92L94.98 7.92Q94.92 7.85 94.77 7.85L94.77 7.85L94.15 7.85L94.02 7.49L94.02 7.49Q94.39 7.13 94.91 6.89L94.91 6.89L94.91 6.89Q95.44 6.65 95.87 6.65L95.87 6.65L95.87 6.65Q96.07 6.65 96.19 6.78L96.19 6.78L96.19 6.78Q96.32 6.90 96.32 7.10L96.32 7.10L96.32 10.95L96.32 10.95Q96.32 11.79 96.66 12.22L96.66 12.22L96.66 12.22Q96.99 12.66 97.64 12.66L97.64 12.66L97.64 12.66Q98.57 12.66 99.10 11.95L99.10 11.95L99.10 11.95Q99.62 11.24 99.62 10.00L99.62 10.00L99.62 10.00Q99.62 8.85 99.53 8.29L99.53 8.29L99.53 8.29Q99.43 7.73 99.08 7.27L99.08 7.27L98.91 7.04L99.08 6.83L100.79 6.65L100.79 14.11L100.79 14.11Q100.79 15.83 99.95 16.77L99.95 16.77L99.95 16.77Q99.12 17.70 97.68 17.70L97.68 17.70Z"></path></g><defs data-v-423bf9ae=""><linearGradient data-v-423bf9ae="" gradientTransform="rotate(25)" id="3f5e0973-96e9-4ad9-aa31-d835b92f32b6" x1="0%" y1="0%" x2="100%" y2="0%"><stop data-v-423bf9ae="" offset="0%" style="stop-color: rgb(146, 13, 233); stop-opacity: 1;"></stop><stop data-v-423bf9ae="" offset="100%" style="stop-color: rgb(21, 54, 241); stop-opacity: 1;"></stop></linearGradient></defs><g data-v-423bf9ae="" id="7f597672-83a2-42b2-9d2a-5d855a960a23" transform="matrix(1.2366111315003174,0,0,1.2366111315003174,-5.8309761063069345,-16.22034263132351)" stroke="none" fill="url(#3f5e0973-96e9-4ad9-aa31-d835b92f32b6)"><path d="M71.62 59.237l-7.172 3.973a29.916 29.916 0 0 1-14.45 3.734 29.924 29.924 0 0 1-14.449-3.734l-8.796-4.873c.11 4.083-.062 8.421-1.726 11.882-.459.945-1.377 1.8-1.36 2.936.02 1.576 1.812 1.842 3.102 1.602 0 0 7.604-1.458 18.126 8.854 1.045 1.025 2.076 1.989 3.492 2.49 2.771.983 4.831-.715 6.735-2.508 1.296-1.219 2.741-2.277 4.193-3.306 3.486-2.463 7.91-5.56 12.351-5.635 0 0 5.729 1.25 2.396-4.062 0 0-1.527-4.921-2.442-11.353M14.998 55.277l-1.667 10v13.334h6.667V65.277l-1.667-10v-9.226l-3.333-1.847z"></path><path d="M93.499 34.391L61.22 16.512a23.139 23.139 0 0 0-22.438 0L6.498 34.391c-1.998 1.108-1.998 3.996 0 5.106l8.5 4.706v-7.259h38.334v3.333H18.331v5.773l20.45 11.327a23.15 23.15 0 0 0 22.438 0l32.279-17.879c2.003-1.111 2.003-3.998.001-5.107"></path></g><!----></svg>